<?xml version="1.0" encoding="UTF-8"?>
<svg xmlns="http://www.w3.org/2000/svg" xmlns:xlink="http://www.w3.org/1999/xlink" width="120" height="112" viewBox="0 0 120 112">
  <defs>
    <clipPath id="b">
      <rect width="120" height="112"></rect>
    </clipPath>
  </defs>
  <g id="a" clip-path="url(#b)">
    <g transform="translate(0.344 -1.7)">
      <path d="M53.187,16.7V11.471a54,54,0,0,0-18.722.871c-6.749,1.306-16.981,2.395-21.117-1.524a.213.213,0,0,0-.218-.218,61.648,61.648,0,0,1-.435,6.531c3.7.218,3.483,6.966.218,6.966-1.089,0-1.306-.435-2.177-.871C9.429,25.4,8.341,27.8,5.511,28.234c-.435-.653-.218-1.524-1.306-1.524-3.048-.218-3.7,4.572-2.177,6.313a4.016,4.016,0,0,0,3.483,1.089c5.878,0,8.273-4.354,10.45-7.837a21.863,21.863,0,0,1,9.8-8.49,45.833,45.833,0,0,1,13.28-2.177C47.963,14.519,51.663,16.043,53.187,16.7Z" transform="translate(1.861 10.434)" fill="#334c4f"></path>
      <path d="M89.227,53.528c-3.048,2.177-5.878-2.177-4.354-5.443-3.483-.218-3.7-6.749-.653-7.4-1.959-2.83.653-7.4,3.919-6.1C83.784,24.574,77.907,16.954,67.675,12.6v8.926A10.058,10.058,0,0,1,69.2,23.05c4.789,5.007,6.966,11.1,7.62,19.811C78.124,59.841,70.5,68.331,59.184,73.339A36.262,36.262,0,0,1,46.34,76.822,54.487,54.487,0,0,1,31.754,75.3c-8.49-2.395-15.674-7.837-13.5-19.375.218-1.306.653-3.7,2.395-3.7s1.959,2.177,3.266,2.612c4.572,1.306,5.878-4.789,2.612-6.313a20.5,20.5,0,0,0-6.313-.218H8.242a28.528,28.528,0,0,0-6.1,0A3.607,3.607,0,0,0-.248,52.657a3.323,3.323,0,0,0,4.354,2.177h0C5.848,54.4,6.065,52,7.807,52c2.395,0,4.136,6.966,4.354,8.708.435,6.1-3.919,8.273-7.184,10.667a8.606,8.606,0,0,0,10.885-3.266C22.175,80.087,41.115,83.571,58.313,79.87A36.6,36.6,0,0,0,65.28,77.91L70.5,75.733A34.671,34.671,0,0,0,89.227,53.528ZM15.209,65.5a27.093,27.093,0,0,1-2.177-4.354c.435-1.524,1.306-2.83,1.742-4.354.871,1.089,1.306,2.612,2.177,3.919A42.349,42.349,0,0,1,15.209,65.5Z" transform="translate(0 12.724)" fill="#334c4f"></path>
      <path d="M81.671,34.82a5.416,5.416,0,0,0-5.225-1.959c-5.225.653-6.531,5.007-9.143,8.273a41.107,41.107,0,0,1-4.354,4.354,18.89,18.89,0,0,1-5.007,3.483A40.534,40.534,0,0,1,47.71,50.93a49.141,49.141,0,0,1-9.8.218,22.927,22.927,0,0,1-6.313,3.7,62.82,62.82,0,0,0,6.313.871c3.483,0,6.966-1.089,10.667-1.306a70.139,70.139,0,0,1,21.335,1.524,40.085,40.085,0,0,1,.653-7.184c-3.919.871-4.354-5.225-1.524-5.443,1.306-.218,2.177,1.089,2.83.871,1.524-2.395,2.395-5.443,5.878-6.1.218.871.653,1.959,1.306,2.177C82.107,41.351,82.977,36.779,81.671,34.82Z" transform="translate(37.394 36.399)" fill="#334c4f"></path>
      <path d="M29.849,58.186c-.653,3.266-5.007,1.742-6.749.653.653,4.136,8.708,7.62,11.1,2.83,2.395,4.789,10.45,1.089,10.885-2.83-1.959,1.306-6.313,2.612-6.749-.653-.653-3.919.435-10.45,0-14.586-2.83.871-5.66,1.742-8.49,2.395C29.631,49.478,30.5,55.138,29.849,58.186Z" transform="translate(27.488 49.127)" fill="#334c4f"></path>
      <path d="M40.106,70.018c1.306-.651,2.612-1.519,3.919-2.17-1.959-.651-3.266-1.085-3.7-1.3l-.653-.651c-10.45-6.51-11.32-13.237-10.885-23.869.435-9.765,2.83-16.708,7.62-21.916.435-.434,1.089-.868,1.524-1.3V15.119a19.351,19.351,0,0,0-6.1-1.519,41.081,41.081,0,0,0-13.5,16.925c1.742,1.736,1.089,6.51-2.177,5.859A12.587,12.587,0,0,1,14.2,41.809c.653,1.085.871,2.387,1.742,3.472,4.572-1.736,5.878,5.859,1.306,6.076A32.446,32.446,0,0,0,32.7,70.235c.653.434,1.742,1.085,2.395,1.519a46.093,46.093,0,0,0,4.789-1.736h.218a.761.761,0,0,1-.435-.217Z" transform="translate(17.047 14.006)" fill="#334c4f"></path>
      <path d="M99.493,14.109C96.886,11.5,97.1,5.183,98.841,1.7H8.256c-.217,0,0,.218,0,.435C9.994,5.4,9.777,11.5,7.6,13.891c-.434.435-1.3.871-1.086,1.089,4.562-.435,11.079-1.742,9.124-6.966H49.313v70.1a17.121,17.121,0,0,0,6.517,2.612A18.79,18.79,0,0,0,58,79.2V19.551h0V8.013h33.67c-1.955,5.66,4.345,6.313,8.906,6.966C100.579,14.762,99.927,14.327,99.493,14.109Z" transform="translate(8.037)" fill="#334c4f"></path>
      <path d="M79.277,26.061c-1.089,0-1.089,1.306-1.959,1.524-1.524.218-2.612-1.742-3.266-2.612a30.487,30.487,0,0,1-2.177-3.483c-.653.218-1.524,1.306-2.83,1.089-2.83-.435-2.395-6.313,1.524-5.443a31.085,31.085,0,0,1-.653-6.313C65.344,13,57.506,12.564,50.975,11.91,43.574,11.04,38.566,9.08,31.6,10.6v3.048a11.257,11.257,0,0,0,2.83,1.306.8.8,0,0,0,.653-.218h1.959a57.939,57.939,0,0,1,20.246,2.177,18.238,18.238,0,0,1,8.273,5.66A18.769,18.769,0,0,1,68.609,26.5c1.959,3.266,4.136,7.4,9.8,6.531a10.936,10.936,0,0,0,2.83-1.089C82.324,30.2,82.324,25.626,79.277,26.061Z" transform="translate(37.394 9.779)" fill="#334c4f"></path>
    </g>
  </g>
</svg>
